HIERARCHY
ROOT Hips
{
	OFFSET 0.000000 83.214638 0.000000
	CHANNELS 6 Xposition Yposition Zposition Xrotation Yrotation Zrotation
	JOINT Pelvis
	{
		OFFSET 0.000000 0.000000 0.000000
		CHANNELS 3 Xrotation Yrotation Zrotation
		JOINT LeftUpLeg
		{
			OFFSET 8.479700 -4.795502 -0.379100
			CHANNELS 3 Xrotation Yrotation Zrotation
			JOINT LeftLeg
			{
				OFFSET 0.024144 -32.555107 0.112900
				CHANNELS 3 Xrotation Yrotation Zrotation
				JOINT LeftFoot
				{
					OFFSET -0.024144 -32.638630 -3.012600
					CHANNELS 3 Xrotation Yrotation Zrotation
					JOINT LeftToeBase
					{
						OFFSET 0.970200 -13.225400 11.864200
						CHANNELS 3 Xrotation Yrotation Zrotation
						End Site
						{
							OFFSET 0.000000 12.319262 0.000000
						}
					}
					JOINT LFootTongue
					{
						OFFSET 1.142400 -1.059800 6.665200
						CHANNELS 3 Xrotation Yrotation Zrotation
						End Site
						{
							OFFSET 0.000000 12.319262 0.000000
						}
					}
				}
				JOINT LeftPantLeg
				{
					OFFSET 0.918482 -16.533964 -2.284700
					CHANNELS 3 Xrotation Yrotation Zrotation
					End Site
					{
						OFFSET 0.350399 24.744368 0.000000
					}
				}
			}
		}
		JOINT RightUpLeg
		{
			OFFSET -8.479700 -4.795502 -0.379100
			CHANNELS 3 Xrotation Yrotation Zrotation
			JOINT RightLeg
			{
				OFFSET -0.023144 -32.555092 0.112900
				CHANNELS 3 Xrotation Yrotation Zrotation
				JOINT RightFoot
				{
					OFFSET 0.023144 -32.638641 -3.012700
					CHANNELS 3 Xrotation Yrotation Zrotation
					JOINT RightToeBase
					{
						OFFSET -0.970200 -13.225400 11.864200
						CHANNELS 3 Xrotation Yrotation Zrotation
						End Site
						{
							OFFSET 0.000000 12.319244 0.000000
						}
					}
					JOINT RFootTongue
					{
						OFFSET -1.142200 -1.059800 6.665200
						CHANNELS 3 Xrotation Yrotation Zrotation
						End Site
						{
							OFFSET 0.000000 12.319243 0.000000
						}
					}
				}
				JOINT RightPantLeg
				{
					OFFSET -0.919482 -16.533978 -2.284800
					CHANNELS 3 Xrotation Yrotation Zrotation
					End Site
					{
						OFFSET -0.350400 24.744419 0.000000
					}
				}
			}
		}
	}
	JOINT Spine
	{
		OFFSET 0.000000 7.722000 1.166200
		CHANNELS 3 Xrotation Yrotation Zrotation
		JOINT Spine1
		{
			OFFSET 0.000000 12.024101 0.248800
			CHANNELS 3 Xrotation Yrotation Zrotation
			JOINT Spine2
			{
				OFFSET 0.000000 11.502998 -0.491200
				CHANNELS 3 Xrotation Yrotation Zrotation
				JOINT Neck
				{
					OFFSET 0.000000 18.430702 -3.123100
					CHANNELS 3 Xrotation Yrotation Zrotation
					JOINT Head
					{
						OFFSET 0.000000 9.051102 1.034000
						CHANNELS 3 Xrotation Yrotation Zrotation
						JOINT HairB
						{
							OFFSET 0.208400 24.786102 24.822300
							CHANNELS 3 Xrotation Yrotation Zrotation
							End Site
							{
								OFFSET 0.000000 32.263779 0.000000
							}
						}
						JOINT HairA
						{
							OFFSET -7.081100 24.428299 23.196600
							CHANNELS 3 Xrotation Yrotation Zrotation
							End Site
							{
								OFFSET 0.000000 32.263779 0.000000
							}
						}
						JOINT Hat
						{
							OFFSET 16.728800 15.048294 -15.439601
							CHANNELS 3 Xrotation Yrotation Zrotation
							End Site
							{
								OFFSET 0.000000 32.263779 0.000000
							}
						}
					}
				}
				JOINT LeftShoulder
				{
					OFFSET 6.197800 13.665199 -4.064700
					CHANNELS 3 Xrotation Yrotation Zrotation
					JOINT LeftArm
					{
						OFFSET 7.778100 -0.187103 -1.709300
						CHANNELS 3 Xrotation Yrotation Zrotation
						JOINT LeftForeArm
						{
							OFFSET 22.049376 0.000000 0.000000
							CHANNELS 3 Xrotation Yrotation Zrotation
							JOINT LeftHand
							{
								OFFSET 23.009392 0.000000 0.000000
								CHANNELS 3 Xrotation Yrotation Zrotation
								JOINT LeftHandThumb1
								{
									OFFSET 3.507191 -2.063065 3.133727
									CHANNELS 3 Xrotation Yrotation Zrotation
									JOINT LeftHandThumb2
									{
										OFFSET 3.101337 -1.790558 1.790558
										CHANNELS 3 Xrotation Yrotation Zrotation
										JOINT LeftHandThumb3
										{
											OFFSET 3.058640 -1.765907 1.765906
											CHANNELS 3 Xrotation Yrotation Zrotation
											End Site
											{
												OFFSET -0.415260 3.926476 -0.049563
											}
										}
									}
								}
								JOINT LeftHandIndex1
								{
									OFFSET 11.334419 -0.901459 3.706815
									CHANNELS 3 Xrotation Yrotation Zrotation
									JOINT LeftHandIndex2
									{
										OFFSET 3.283112 0.000000 0.000000
										CHANNELS 3 Xrotation Yrotation Zrotation
										JOINT LeftHandIndex3
										{
											OFFSET 3.323853 0.000000 0.000000
											CHANNELS 3 Xrotation Yrotation Zrotation
											End Site
											{
												OFFSET -1.135597 3.097809 0.402452
											}
										}
									}
								}
								JOINT LeftHandMiddle1
								{
									OFFSET 11.335861 0.000000 0.000000
									CHANNELS 3 Xrotation Yrotation Zrotation
									JOINT LeftHandMiddle2
									{
										OFFSET 3.410492 0.000000 0.000000
										CHANNELS 3 Xrotation Yrotation Zrotation
										JOINT LeftHandMiddle3
										{
											OFFSET 3.312172 0.000000 0.000000
											CHANNELS 3 Xrotation Yrotation Zrotation
											End Site
											{
												OFFSET -1.150200 3.080154 0.400270
											}
										}
									}
								}
								JOINT LeftHandRing1
								{
									OFFSET 11.514786 -0.013176 -3.003090
									CHANNELS 3 Xrotation Yrotation Zrotation
									JOINT LeftHandRing2
									{
										OFFSET 3.053307 0.000000 0.000000
										CHANNELS 3 Xrotation Yrotation Zrotation
										JOINT LeftHandRing3
										{
											OFFSET 3.295807 0.000000 0.000000
											CHANNELS 3 Xrotation Yrotation Zrotation
											End Site
											{
												OFFSET -1.281006 3.013344 0.375733
											}
										}
									}
								}
								JOINT LeftHandPinky1
								{
									OFFSET 10.518692 -0.960396 -5.730441
									CHANNELS 3 Xrotation Yrotation Zrotation
									JOINT LeftHandPinky2
									{
										OFFSET 2.861649 0.000000 0.000000
										CHANNELS 3 Xrotation Yrotation Zrotation
										JOINT LeftHandPinky3
										{
											OFFSET 2.863380 0.000000 0.000000
											CHANNELS 3 Xrotation Yrotation Zrotation
											End Site
											{
												OFFSET -0.843597 2.711159 0.369971
											}
										}
									}
								}
							}
							JOINT LSleeve
							{
								OFFSET 6.676277 -0.344902 -1.011730
								CHANNELS 3 Xrotation Yrotation Zrotation
								End Site
								{
									OFFSET 0.000000 14.885353 0.000000
								}
							}
						}
					}
				}
				JOINT RightShoulder
				{
					OFFSET -6.197800 13.665199 -4.064700
					CHANNELS 3 Xrotation Yrotation Zrotation
					JOINT RightArm
					{
						OFFSET -7.778100 -0.187103 -1.709300
						CHANNELS 3 Xrotation Yrotation Zrotation
						JOINT RightForeArm
						{
							OFFSET -22.049376 0.000000 0.000000
							CHANNELS 3 Xrotation Yrotation Zrotation
							JOINT RightHand
							{
								OFFSET -23.009392 0.000000 0.000000
								CHANNELS 3 Xrotation Yrotation Zrotation
								JOINT RightHandThumb1
								{
									OFFSET -3.507191 -2.063065 3.133727
									CHANNELS 3 Xrotation Yrotation Zrotation
									JOINT RightHandThumb2
									{
										OFFSET -3.101337 -1.790558 1.790558
										CHANNELS 3 Xrotation Yrotation Zrotation
										JOINT RightHandThumb3
										{
											OFFSET -3.058640 -1.765907 1.765906
											CHANNELS 3 Xrotation Yrotation Zrotation
											End Site
											{
												OFFSET 0.415260 3.926476 -0.049563
											}
										}
									}
								}
								JOINT RightHandIndex1
								{
									OFFSET -11.334419 -0.901459 3.706815
									CHANNELS 3 Xrotation Yrotation Zrotation
									JOINT RightHandIndex2
									{
										OFFSET -3.283112 0.000000 0.000000
										CHANNELS 3 Xrotation Yrotation Zrotation
										JOINT RightHandIndex3
										{
											OFFSET -3.323853 0.000000 0.000000
											CHANNELS 3 Xrotation Yrotation Zrotation
											End Site
											{
												OFFSET 1.135597 3.097809 0.402452
											}
										}
									}
								}
								JOINT RightHandMiddle1
								{
									OFFSET -11.335861 0.000000 0.000000
									CHANNELS 3 Xrotation Yrotation Zrotation
									JOINT RightHandMiddle2
									{
										OFFSET -3.410492 0.000000 0.000000
										CHANNELS 3 Xrotation Yrotation Zrotation
										JOINT RightHandMiddle3
										{
											OFFSET -3.312172 0.000000 0.000000
											CHANNELS 3 Xrotation Yrotation Zrotation
											End Site
											{
												OFFSET 1.150200 3.080154 0.400270
											}
										}
									}
								}
								JOINT RightHandRing1
								{
									OFFSET -11.514786 -0.013176 -3.003090
									CHANNELS 3 Xrotation Yrotation Zrotation
									JOINT RightHandRing2
									{
										OFFSET -3.053307 0.000000 0.000000
										CHANNELS 3 Xrotation Yrotation Zrotation
										JOINT RightHandRing3
										{
											OFFSET -3.295807 0.000000 0.000000
											CHANNELS 3 Xrotation Yrotation Zrotation
											End Site
											{
												OFFSET 1.281006 3.013344 0.375733
											}
										}
									}
								}
								JOINT RightHandPinky1
								{
									OFFSET -10.518692 -0.960396 -5.730441
									CHANNELS 3 Xrotation Yrotation Zrotation
									JOINT RightHandPinky2
									{
										OFFSET -2.861649 0.000000 0.000000
										CHANNELS 3 Xrotation Yrotation Zrotation
										JOINT RightHandPinky3
										{
											OFFSET -2.863380 0.000000 0.000000
											CHANNELS 3 Xrotation Yrotation Zrotation
											End Site
											{
												OFFSET 0.843597 2.711159 0.369971
											}
										}
									}
								}
							}
							JOINT RSleeve
							{
								OFFSET -6.676277 -0.344902 -1.011730
								CHANNELS 3 Xrotation Yrotation Zrotation
								End Site
								{
									OFFSET 0.000000 14.885353 0.000000
								}
							}
						}
					}
				}
				JOINT Backpack
				{
					OFFSET 0.000000 -2.471497 36.677502
					CHANNELS 3 Xrotation Yrotation Zrotation
					End Site
					{
						OFFSET 0.000000 20.427315 0.000000
					}
				}
				JOINT Hood
				{
					OFFSET 0.000000 18.754097 -10.431000
					CHANNELS 3 Xrotation Yrotation Zrotation
					JOINT Hood1
					{
						OFFSET 0.000000 -5.011002 -7.685901
						CHANNELS 3 Xrotation Yrotation Zrotation
						End Site
						{
							OFFSET 0.000000 9.175140 0.000000
						}
					}
				}
				JOINT LHoodieString
				{
					OFFSET 5.250500 16.397697 3.089900
					CHANNELS 3 Xrotation Yrotation Zrotation
					JOINT LHoodieString1
					{
						OFFSET 0.257700 -6.364304 3.694600
						CHANNELS 3 Xrotation Yrotation Zrotation
						JOINT LHoodieString2
						{
							OFFSET 0.000000 -9.643799 2.679100
							CHANNELS 3 Xrotation Yrotation Zrotation
							End Site
							{
								OFFSET 0.000000 10.009018 0.000000
							}
						}
					}
				}
				JOINT RHoodieString
				{
					OFFSET -5.250500 16.397697 3.089900
					CHANNELS 3 Xrotation Yrotation Zrotation
					JOINT RHoodieString1
					{
						OFFSET -0.257700 -6.364304 3.694600
						CHANNELS 3 Xrotation Yrotation Zrotation
						JOINT RHoodieString2
						{
							OFFSET 0.000000 -9.643799 2.679100
							CHANNELS 3 Xrotation Yrotation Zrotation
							End Site
							{
								OFFSET 0.000000 10.009018 0.000000
							}
						}
					}
				}
			}
			JOINT LBackpack_Strap
			{
				OFFSET 15.223200 -7.719803 -6.610900
				CHANNELS 3 Xrotation Yrotation Zrotation
				End Site
				{
					OFFSET 0.000000 16.040596 0.000000
				}
			}
			JOINT RBackpack_Strap
			{
				OFFSET -15.223000 -7.719803 -6.610900
				CHANNELS 3 Xrotation Yrotation Zrotation
				End Site
				{
					OFFSET 0.000000 16.040596 0.000000
				}
			}
		}
	}
	JOINT BoyFacialAnim_Joint
	{
		OFFSET 1.000000 -82.208099 -1.550900
		CHANNELS 3 Xrotation Yrotation Zrotation
		End Site
		{
			OFFSET 0.000000 30.012791 0.000000
		}
	}
}
MOTION
Frames: 4
Frame Time: 0.033333
-0.234127 78.507614 0.514392 -0.144845 3.970628 -2.311820 -0.000000 -0.000000 -0.000000 -27.279501 -4.512001 9.203658 72.458465 3.907139 -2.133171 5.704480 -5.102398 -10.384234 -0.000001 0.000000 -0.000001 -0.000001 0.000000 -0.000000 -0.000001 0.000001 -0.000001 -21.609182 -8.024700 3.641890 36.285117 0.057691 1.303888 -14.546488 -1.688559 -5.322600 -0.000000 -0.000000 0.000000 -0.000000 -0.000000 0.000000 0.000000 -0.000000 -0.000001 1.425506 -0.081374 1.822671 2.849423 0.065224 1.738776 2.849424 0.065222 1.738777 6.698431 -1.964099 1.610699 -12.292860 -8.109157 -2.277486 -0.000000 0.000001 -0.000000 -0.000000 0.000001 -0.000000 -0.000000 0.000001 -0.000000 -9.065139 -5.936309 -17.628023 -3.406426 -18.967533 -61.436431 -19.077364 -46.635797 -12.109699 -100.609185 -17.813031 5.855627 3.592068 4.185681 -5.133826 1.252898 4.302575 1.889378 -0.000001 -0.000000 0.000001 7.554889 5.560400 -33.410379 -14.917816 -6.767389 -80.641933 -0.000004 0.000000 -0.000005 -0.349197 -1.566801 -62.979235 -6.177648 -6.585489 -60.286200 0.000002 -0.000001 -0.000002 -5.286458 4.624261 -73.484701 0.757956 -3.521255 -58.282851 -0.000000 -0.000000 -0.000000 -16.248820 1.424898 -86.150590 2.608783 -7.577992 -55.784733 -0.000000 0.000001 -0.000000 0.000002 -0.000000 0.000001 2.434418 -2.935882 13.246372 31.719696 44.413565 33.261167 -81.203969 101.865113 71.431382 -42.978463 -13.632498 11.499772 15.407469 -4.518717 17.010996 11.550407 4.015432 -20.411394 0.000000 -0.000001 0.000001 1.857081 -0.976103 4.781777 -1.775932 -0.095305 22.317061 -0.000000 0.000002 0.000000 3.631175 5.779694 48.858826 -9.397597 -0.919660 110.759782 0.000002 0.000001 -0.000000 -8.676834 -5.659709 54.892318 -4.714147 8.864050 96.803752 0.000001 -0.000001 0.000000 -12.562954 0.077602 69.885307 -3.484610 14.093087 79.770558 -0.000001 0.000003 -0.000001 -0.000001 0.000001 0.000000 -0.000000 -0.000000 0.000000 -0.000000 -0.000000 0.000000 -0.000000 -0.000000 0.000000 -0.000000 -0.000000 0.000000 -0.000000 -0.000000 -0.000000 -0.000000 -0.000000 -0.000000 -0.000000 -0.000000 0.000000 -0.000000 -0.000000 -0.000000 -0.000000 -0.000000 -0.000000 0.000000 -0.000000 0.000000 0.000000 -0.000000 0.000000 -0.000000 -0.000000 -0.000000 
-0.377306 78.759163 2.060092 -0.714522 3.660516 -2.402681 -0.000000 -0.000000 0.000000 -31.822336 -4.397660 8.998750 75.580353 3.998253 -2.204198 3.875703 -1.806847 -7.297144 -0.000000 0.000001 -0.000001 -0.000000 0.000001 -0.000000 -0.000003 0.000000 -0.000001 -18.920047 -8.341336 3.999871 35.090066 0.119806 1.265331 -15.210577 -1.016810 -5.374385 0.000000 -0.000000 0.000000 0.000000 -0.000000 0.000000 0.000001 0.000000 -0.000000 1.460958 0.122493 1.788813 2.924605 0.424350 1.576596 2.924603 0.424348 1.576596 7.038674 -1.599048 1.229373 -11.676883 -8.338128 -2.122649 0.000000 -0.000000 0.000000 0.000000 -0.000000 0.000000 0.000000 -0.000000 0.000000 -9.177405 -5.833072 -17.742345 -4.669514 -19.125715 -61.594523 -18.554547 -45.498117 -11.710595 -100.404928 -17.482187 5.755307 3.580841 4.194814 -5.130170 1.243834 4.305741 1.896654 -0.000000 0.000000 0.000001 7.593774 5.607682 -33.256078 -14.895676 -6.827058 -80.498957 -0.000001 0.000001 -0.000002 -0.154882 -1.446964 -62.880279 -6.161588 -6.593096 -60.147718 0.000001 -0.000000 0.000000 -5.173161 4.714066 -73.351676 0.765968 -3.506086 -58.128817 -0.000001 0.000001 0.000001 -16.176502 1.553281 -86.008256 2.635801 -7.571133 -55.627554 -0.000003 0.000001 0.000002 -0.000000 0.000000 -0.000001 2.576800 -2.849431 13.161744 30.798228 44.803060 33.046224 -83.514437 101.490416 73.904218 -43.333773 -13.523595 11.410400 15.397931 -4.522089 17.004743 11.543550 4.013458 -20.409756 -0.000002 0.000002 0.000004 1.901487 -0.974911 4.790568 -1.776482 -0.095520 22.317023 -0.000001 0.000002 0.000000 3.627733 5.790848 48.927643 -9.395748 -0.930187 110.759031 0.000002 -0.000004 0.000003 -8.744055 -5.673272 54.963137 -4.714262 8.869605 96.804415 0.000001 0.000002 0.000001 -12.761619 0.011310 69.925168 -3.483333 14.088940 79.769943 -0.000001 0.000000 -0.000003 -0.000003 0.000001 -0.000000 0.000000 -0.000000 -0.000000 0.000000 -0.000000 -0.000000 0.000000 -0.000000 -0.000000 0.000000 -0.000000 -0.000000 0.000000 -0.000000 -0.000000 0.000000 -0.000000 0.000000 0.000000 -0.000000 -0.000000 0.000000 -0.000000 -0.000000 0.000000 -0.000000 0.000000 0.000001 0.000000 0.000000 0.000001 0.000000 0.000000 -0.000000 -0.000000 0.000000 
-0.572602 79.216072 4.189603 -1.426008 3.083343 -2.293697 0.000000 0.000000 0.000000 -34.112263 -3.879514 8.880515 75.119937 4.381824 -2.172785 0.446197 -1.521635 -4.809458 0.000001 0.000001 -0.000001 0.000001 0.000001 -0.000001 -0.000005 -0.000000 0.000000 -15.103766 -8.646964 4.254129 32.909282 0.183389 1.194416 -15.638152 0.051926 -5.380012 -0.000000 -0.000000 0.000000 -0.000000 -0.000000 0.000000 0.000001 -0.000000 0.000000 1.497429 0.394527 1.598899 3.003645 0.923215 1.300137 3.003644 0.923215 1.300137 7.228614 -1.210063 0.836277 -11.135128 -8.364243 -2.109115 0.000000 0.000000 -0.000000 0.000000 0.000000 -0.000000 0.000000 0.000000 -0.000000 -9.306093 -5.590809 -17.694484 -6.107021 -19.535936 -62.087280 -17.966283 -44.094086 -11.172370 -100.183616 -16.984672 5.549977 3.552555 4.154900 -5.035921 1.233880 4.309222 1.904604 -0.000000 0.000000 0.000004 7.633020 5.656213 -33.100835 -14.873089 -6.887269 -80.354068 -0.000000 -0.000003 -0.000002 0.036939 -1.330456 -62.777696 -6.142839 -6.600279 -60.007481 0.000000 -0.000001 -0.000002 -5.060624 4.801977 -73.216664 0.774067 -3.490761 -57.972904 0.000000 -0.000001 -0.000000 -16.102390 1.678423 -85.864576 2.662679 -7.563228 -55.468629 -0.000003 -0.000001 -0.000000 0.000001 0.000001 -0.000000 2.741157 -2.775392 12.903815 29.898907 45.182832 32.974763 -85.097006 101.199423 75.616341 -43.689281 -13.413968 11.090212 15.388671 -4.525387 16.998727 11.536849 4.011561 -20.408161 -0.000001 0.000002 0.000001 1.944637 -0.973579 4.798928 -1.777065 -0.095769 22.317015 -0.000001 0.000000 0.000000 3.624792 5.801744 48.994419 -9.393907 -0.940389 110.758313 0.000003 0.000000 0.000003 -8.808797 -5.686250 55.032330 -4.714345 8.875009 96.805104 -0.000001 0.000002 0.000001 -12.954734 -0.051611 69.964968 -3.482101 14.084915 79.769383 -0.000000 -0.000003 -0.000002 -0.000002 0.000001 -0.000001 0.000000 -0.000000 -0.000000 0.000000 -0.000000 -0.000000 0.000000 -0.000000 -0.000000 0.000000 -0.000000 -0.000000 0.000000 -0.000000 -0.000000 0.000000 -0.000000 0.000000 0.000000 -0.000000 -0.000000 0.000000 -0.000000 -0.000000 0.000000 -0.000000 0.000000 0.000000 -0.000000 0.000000 0.000000 -0.000000 0.000000 0.000000 0.000000 0.000000 
-0.756280 79.709305 6.302999 -2.061459 2.319028 -2.007481 -0.000000 -0.000000 0.000000 -35.268501 -3.510774 8.803083 71.740837 4.728955 -2.068319 -2.481202 -2.873495 -5.041452 -0.000001 0.000000 -0.000000 -0.000001 0.000000 -0.000000 -0.000002 0.000000 -0.000000 -11.354353 -8.834939 4.269649 30.475645 0.240926 1.114732 -15.645289 1.235680 -5.289112 0.000000 -0.000000 0.000000 0.000000 -0.000000 0.000000 0.000001 0.000000 0.000000 1.527598 0.670654 1.317315 3.069719 1.420718 0.939991 3.069720 1.420717 0.939991 7.288225 -0.798548 0.538371 -10.856680 -8.230551 -2.021173 -0.000000 -0.000000 0.000000 -0.000000 -0.000000 0.000000 -0.000000 -0.000000 0.000000 -9.405144 -5.207908 -17.358948 -7.058764 -20.240909 -62.667320 -17.543723 -43.213866 -10.758859 -100.112856 -16.676110 5.712387 3.512978 4.094193 -4.904711 1.223225 4.312962 1.913032 -0.000000 -0.000001 0.000002 7.672515 5.705849 -32.945042 -14.850165 -6.947867 -80.207663 -0.000001 -0.000000 -0.000002 0.225983 -1.217349 -62.671897 -6.121700 -6.607005 -59.865788 0.000001 -0.000002 -0.000000 -4.949083 4.887892 -73.080073 0.782169 -3.475247 -57.815468 -0.000002 0.000001 -0.000002 -16.026670 1.800308 -85.719994 2.689421 -7.554333 -55.308379 -0.000005 -0.000001 -0.000000 0.000001 0.000000 0.000000 2.906624 -2.755322 12.576215 29.148498 45.436307 33.134313 -84.691361 101.031687 75.285617 -44.103638 -13.552378 10.665314 15.379713 -4.528603 16.992923 11.530365 4.009721 -20.406623 0.000000 -0.000001 0.000002 1.986483 -0.972161 4.806897 -1.777626 -0.095981 22.316998 0.000001 0.000001 0.000004 3.622367 5.812373 49.059128 -9.392128 -0.950298 110.757589 -0.000001 0.000001 0.000002 -8.871048 -5.698681 55.099891 -4.714416 8.880231 96.805699 -0.000001 -0.000002 0.000005 -13.142212 -0.111308 70.004658 -3.480899 14.081029 79.768844 -0.000000 -0.000000 -0.000001 -0.000001 0.000001 0.000002 0.000000 -0.000000 0.000000 0.000000 -0.000000 0.000000 0.000000 -0.000000 0.000000 0.000000 -0.000000 0.000000 0.000000 -0.000000 0.000000 0.000000 -0.000000 -0.000000 0.000000 -0.000000 0.000000 0.000000 -0.000000 0.000000 0.000000 -0.000000 -0.000000 0.000000 0.000000 0.000000 0.000000 0.000000 0.000000 -0.000000 -0.000000 0.000000 
